<?xml version="1.0" encoding="UTF-8"?>
<svg xmlns="http://www.w3.org/2000/svg" xmlns:xlink="http://www.w3.org/1999/xlink" width="837pt" height="182pt" viewBox="0 0 837 182" version="1.1">
<g id="surface1">
<path style=" stroke:none;fill-rule:nonzero;fill:rgb(0%,0%,0%);fill-opacity:1;" d="M 818.589844 0 C 827.625 0 835.179688 7.136719 835.179688 16.5 C 835.21875 20.921875 833.488281 25.175781 830.367188 28.304688 C 827.25 31.4375 823.007812 33.1875 818.589844 33.164062 C 809.441406 33.164062 802.027344 25.738281 802.027344 16.582031 C 802.027344 7.425781 809.441406 0 818.589844 0 Z M 818.589844 0 "/>
<path style=" stroke:none;fill-rule:nonzero;fill:rgb(100%,100%,100%);fill-opacity:1;" d="M 818.589844 30.714844 C 826.238281 30.714844 832.160156 24.597656 832.160156 16.5 C 832.160156 8.5625 826.238281 2.445312 818.589844 2.445312 C 814.894531 2.433594 811.355469 3.921875 808.773438 6.570312 C 806.195312 9.21875 804.800781 12.800781 804.90625 16.5 C 804.90625 24.597656 810.832031 30.714844 818.589844 30.714844 Z M 818.589844 30.714844 "/>
<path style=" stroke:none;fill-rule:nonzero;fill:rgb(0%,0%,0%);fill-opacity:1;" d="M 812.109375 6.878906 L 819.589844 6.878906 C 824.199219 6.878906 826.367188 8.695312 826.367188 12.421875 C 826.367188 15.90625 824.144531 17.386719 821.273438 17.703125 L 826.808594 26.25 L 823.570312 26.25 L 818.3125 17.925781 L 815.109375 17.925781 L 815.109375 26.25 L 812.089844 26.25 L 812.089844 6.878906 Z M 812.109375 6.878906 "/>
<path style=" stroke:none;fill-rule:nonzero;fill:rgb(100%,100%,100%);fill-opacity:1;" d="M 815.125 15.460938 L 818.253906 15.460938 C 820.941406 15.460938 823.347656 15.332031 823.347656 12.273438 C 823.347656 9.695312 821.144531 9.289062 819.109375 9.289062 L 815.125 9.289062 Z M 815.125 15.460938 "/>
<path style=" stroke:none;fill-rule:nonzero;fill:rgb(0%,0%,0%);fill-opacity:1;" d="M 418.5 181.925781 C 749.652344 182.425781 768.390625 180.480469 799.292969 165.835938 C 822.089844 155.046875 836.808594 131.132812 836.808594 104.144531 C 836.808594 80.582031 825.3125 58.578125 810.625 47.882812 C 787.851562 31.234375 760.261719 23.488281 602.296875 12.566406 C 557.78125 9.546875 513.21875 7.277344 468.625 5.765625 C 450.144531 5.097656 426.648438 4.335938 418.5 4.335938 C 410.335938 4.335938 386.835938 5.097656 368.375 5.765625 C 306.660156 7.953125 260.90625 10.769531 234.703125 12.566406 C 76.703125 23.46875 49.148438 31.21875 26.355469 47.882812 C 11.6875 58.578125 0.191406 80.582031 0.191406 104.144531 C 0.191406 131.132812 14.894531 155.046875 37.707031 165.835938 C 68.609375 180.480469 87.367188 181.445312 418.5 181.925781 Z M 418.5 181.925781 "/>
<path style=" stroke:none;fill-rule:nonzero;fill:rgb(100%,100%,100%);fill-opacity:1;" d="M 418.5 174.175781 C 748.375 174.175781 761.484375 174.121094 794.148438 159.53125 C 815.035156 150.191406 828.941406 128.574219 828.941406 104.144531 C 828.941406 85.753906 820.828125 65.4375 806.203125 54.296875 C 783.816406 37.203125 752.539062 30.417969 603.777344 20.613281 C 559.234375 17.546875 514.648438 15.179688 470.03125 13.515625 C 457.070312 13.050781 426.222656 12.199219 418.480469 12.199219 C 410.742188 12.199219 379.910156 13.050781 366.929688 13.515625 C 309.917969 15.554688 263.699219 18.574219 233.167969 20.613281 C 84.441406 30.417969 53.183594 37.1875 30.78125 54.277344 C 16.1875 65.4375 8.058594 85.753906 8.058594 104.144531 C 8.058594 128.574219 21.964844 150.191406 42.851562 159.53125 C 75.496094 174.101562 88.609375 174.175781 418.5 174.175781 Z M 418.5 174.175781 "/>
<path style=" stroke:none;fill-rule:nonzero;fill:rgb(0%,0%,0%);fill-opacity:1;" d="M 418.5 25.246094 C 512.230469 25.246094 697.527344 37.964844 739.117188 48.417969 C 765.058594 54.964844 782.128906 75.578125 782.128906 101.546875 C 782.128906 126.648438 764.964844 147.132812 742.597656 153.378906 C 712.859375 161.664062 544.542969 162.015625 418.5 162.015625 C 292.457031 162.015625 124.140625 161.664062 94.382812 153.359375 C 71.085938 146.914062 54.925781 125.726562 54.851562 101.527344 C 54.851562 75.558594 71.90625 54.945312 97.882812 48.402344 C 139.472656 37.945312 324.75 25.246094 418.5 25.246094 Z M 418.5 25.246094 "/>
<path style=" stroke:none;fill-rule:nonzero;fill:rgb(100%,100%,100%);fill-opacity:1;" d="M 353.359375 56.484375 C 348.988281 55.835938 348.285156 55.816406 336.472656 55.816406 C 324.65625 55.816406 321.992188 56.296875 318.230469 57.132812 C 311.640625 58.597656 308.398438 61.730469 306.492188 67.660156 L 289.550781 116.339844 C 286.53125 125.792969 291.734375 133.46875 301.179688 133.46875 L 329.230469 133.46875 C 335.453125 133.46875 342.117188 128.410156 344.117188 122.179688 L 355.300781 92.558594 C 355.914062 90.667969 354.875 89.144531 352.988281 89.144531 L 331.636719 89.144531 C 329.582031 89.269531 327.804688 90.613281 327.121094 92.558594 L 325.972656 96.875 C 325.359375 98.765625 326.398438 100.304688 328.285156 100.304688 L 334.601562 100.304688 C 336.488281 100.304688 337.527344 101.84375 336.914062 103.734375 L 332.433594 116.101562 C 331.289062 119.390625 328.28125 121.671875 324.804688 121.882812 L 308.179688 121.882812 C 304.992188 121.882812 303.214844 119.304688 304.253906 116.101562 L 319.824219 71.089844 C 320.503906 69.140625 322.285156 67.792969 324.34375 67.660156 L 345.730469 67.660156 C 347.617188 67.660156 348.65625 69.199219 348.0625 71.089844 C 347.453125 73 348.488281 74.519531 350.378906 74.519531 L 358.117188 74.519531 C 360.007812 74.519531 361.542969 72.148438 362.152344 70.257812 C 364.855469 61.933594 360.785156 57.613281 353.359375 56.484375 Z M 433.867188 59.207031 C 434.460938 57.316406 433.425781 55.777344 431.535156 55.777344 L 423.886719 55.777344 C 421.832031 55.910156 420.050781 57.261719 419.371094 59.207031 L 410.039062 85.644531 C 409.355469 87.589844 407.578125 88.941406 405.519531 89.070312 L 387.429688 89.070312 C 385.539062 89.070312 384.503906 87.535156 385.113281 85.644531 L 394.390625 59.355469 C 395.003906 57.449219 393.964844 55.925781 392.078125 55.925781 L 384.410156 55.925781 C 382.351562 56.050781 380.570312 57.40625 379.894531 59.355469 L 355.246094 130.058594 C 354.65625 131.949219 355.671875 133.488281 357.5625 133.488281 L 365.191406 133.414062 C 367.25 133.289062 369.03125 131.933594 369.707031 129.984375 L 378.820312 103.957031 C 379.492188 102.011719 381.265625 100.660156 383.320312 100.527344 L 401.464844 100.601562 C 403.371094 100.601562 404.410156 102.121094 403.796875 104.03125 L 394.632812 130.058594 C 394.039062 131.949219 395.078125 133.488281 396.964844 133.488281 L 404.59375 133.414062 C 406.652344 133.289062 408.4375 131.933594 409.113281 129.984375 Z M 523.988281 121.863281 L 503.9375 121.863281 C 502.046875 121.863281 501.011719 120.324219 501.621094 118.433594 L 521.730469 60.636719 C 522.324219 58.746094 521.285156 57.1875 519.398438 57.1875 L 511.75 57.1875 C 509.6875 57.320312 507.90625 58.679688 507.230469 60.636719 L 483.066406 130.058594 C 482.457031 131.949219 483.492188 133.488281 485.382812 133.488281 L 520.136719 133.488281 C 522.195312 133.359375 523.976562 132.007812 524.65625 130.058594 L 526.324219 125.292969 C 526.914062 123.402344 525.878906 121.863281 523.988281 121.863281 Z M 693.195312 65.714844 L 657.9375 63.101562 C 655.882812 63.230469 654.101562 64.582031 653.421875 66.53125 L 631.460938 130.058594 C 630.847656 131.949219 631.90625 133.488281 633.773438 133.488281 L 669.546875 133.488281 C 671.605469 133.359375 673.386719 132.007812 674.066406 130.058594 L 675.714844 125.292969 C 676.324219 123.402344 675.289062 121.863281 673.398438 121.863281 L 652.328125 121.863281 C 650.441406 121.863281 649.382812 120.324219 650.011719 118.433594 L 654.496094 106.40625 C 655.167969 104.449219 656.953125 103.09375 659.011719 102.976562 L 674.308594 103.382812 C 676.367188 103.257812 678.148438 101.90625 678.824219 99.953125 L 680.324219 95.800781 C 680.9375 93.910156 679.882812 92.371094 678.011719 92.371094 L 662.714844 91.835938 C 660.808594 91.835938 659.773438 90.296875 660.382812 88.40625 L 663.808594 78.859375 C 664.492188 76.914062 666.269531 75.5625 668.328125 75.429688 L 689.527344 76.6875 C 691.589844 76.570312 693.375 75.214844 694.046875 73.257812 L 695.546875 69.105469 C 696.121094 67.253906 695.066406 65.714844 693.195312 65.714844 Z M 265.070312 58.875 L 228.519531 60.265625 C 226.460938 60.390625 224.675781 61.742188 224 63.695312 L 200.875 130.058594 C 200.28125 131.949219 201.316406 133.488281 203.207031 133.488281 L 239.8125 133.488281 C 241.871094 133.359375 243.652344 132.007812 244.332031 130.058594 L 246 125.292969 C 246.609375 123.402344 245.554688 121.863281 243.683594 121.863281 L 222.722656 121.863281 C 220.835938 121.863281 219.796875 120.324219 220.410156 118.433594 L 225.425781 104.644531 C 226.109375 102.695312 227.886719 101.34375 229.945312 101.214844 L 246.109375 100.898438 C 248.167969 100.769531 249.949219 99.417969 250.628906 97.46875 L 252.128906 93.296875 C 252.738281 91.40625 251.703125 89.886719 249.8125 89.886719 L 233.648438 90.089844 C 231.757812 90.089844 230.722656 88.554688 231.332031 86.664062 L 235.535156 75.078125 C 236.214844 73.125 237.996094 71.773438 240.054688 71.648438 L 260.90625 70.925781 C 262.960938 70.792969 264.742188 69.441406 265.421875 67.496094 L 267.402344 62.285156 C 267.996094 60.414062 266.976562 58.875 265.070312 58.875 Z M 148.769531 65.121094 L 115.808594 66.847656 C 113.957031 66.773438 111.957031 68.253906 111.347656 70.164062 L 90.902344 130.058594 C 90.3125 131.949219 91.347656 133.488281 93.238281 133.488281 L 100.996094 133.488281 C 103.054688 133.359375 104.832031 132.007812 105.511719 130.058594 L 112.917969 108.128906 C 113.601562 106.179688 115.378906 104.828125 117.4375 104.699219 L 131.734375 104.734375 C 133.792969 104.609375 135.574219 103.257812 136.25 101.308594 L 137.898438 96.191406 C 138.511719 94.28125 137.472656 92.761719 135.585938 92.761719 L 121.492188 92.816406 C 119.605469 92.816406 118.566406 91.277344 119.160156 89.386719 L 121.511719 81.859375 C 122.121094 79.96875 124.121094 78.488281 125.972656 78.5625 L 144.84375 77.339844 C 147.210938 77.132812 148.710938 75.949219 149.304688 74.058594 L 151.046875 68.679688 C 151.65625 66.773438 150.636719 65.195312 148.769531 65.121094 Z M 495.269531 56.761719 L 448.386719 56.019531 C 446.328125 56.148438 444.546875 57.5 443.867188 59.449219 L 442.164062 64.472656 C 441.570312 66.382812 442.609375 67.902344 444.496094 67.902344 L 458.902344 67.921875 C 460.792969 67.921875 461.828125 69.460938 461.21875 71.351562 L 440.941406 130.058594 C 440.332031 131.949219 441.386719 133.488281 443.257812 133.488281 L 450.886719 133.488281 C 452.941406 133.359375 454.722656 132.007812 455.402344 130.058594 L 475.234375 71.945312 C 475.914062 69.996094 477.695312 68.644531 479.753906 68.515625 L 491.25 68.496094 C 493.308594 68.367188 495.089844 67.015625 495.769531 65.066406 L 497.585938 60.171875 C 498.195312 58.28125 497.140625 56.761719 495.269531 56.761719 Z M 568.726562 58.835938 L 561.152344 58.46875 C 559.09375 58.597656 557.316406 59.949219 556.632812 61.894531 L 533.117188 130.039062 C 532.527344 131.929688 533.5625 133.46875 535.433594 133.46875 L 543.0625 133.46875 C 545.117188 133.339844 546.898438 131.988281 547.578125 130.039062 L 571.058594 62.25 C 571.652344 60.375 570.613281 58.835938 568.726562 58.835938 Z M 293.125 58.097656 L 285.4375 58.207031 C 283.386719 58.351562 281.613281 59.699219 280.921875 61.636719 L 257.257812 130.039062 C 256.664062 131.929688 257.703125 133.46875 259.589844 133.46875 L 267.199219 133.46875 C 269.261719 133.34375 271.042969 131.992188 271.71875 130.039062 L 295.417969 61.507812 C 296.050781 59.632812 294.992188 58.097656 293.125 58.097656 Z M 194.042969 62.101562 L 166.378906 63.640625 C 164.320312 63.773438 162.542969 65.121094 161.859375 67.066406 L 140.304688 130.058594 C 139.695312 131.949219 140.730469 133.488281 142.621094 133.488281 L 150.25 133.488281 C 152.308594 133.359375 154.085938 132.007812 154.765625 130.058594 L 163.339844 105.847656 C 164.210938 103.789062 164.542969 103.289062 167.136719 103.289062 L 170.285156 103.289062 C 172.875 103.289062 173.414062 103.753906 173.785156 105.644531 L 178.023438 130.058594 C 178.394531 131.949219 180.226562 133.488281 182.117188 133.488281 L 189.746094 133.488281 C 191.632812 133.488281 192.855469 131.949219 192.484375 130.058594 L 188.503906 107.257812 C 187.597656 103.9375 188.355469 103.625 189.429688 103.496094 C 197.1875 102.714844 201.597656 96.988281 205.578125 83.363281 C 210.632812 66.085938 204.523438 61.785156 194.042969 62.101562 Z M 192.003906 83.289062 C 188.875 90.683594 187.78125 91.574219 181.5625 91.574219 L 171.746094 91.574219 C 169.859375 91.574219 168.804688 90.054688 169.414062 88.144531 L 172.375 79.285156 C 173.058594 77.335938 174.835938 75.984375 176.894531 75.855469 L 187.558594 75.1875 C 192.949219 74.945312 194.835938 76.652344 192.003906 83.289062 Z M 733.632812 104.457031 C 739.707031 103.605469 743.097656 93.1875 745.1875 85.402344 C 748.300781 74 743.097656 69.050781 732.96875 68.457031 L 708.542969 66.753906 C 706.328125 67.09375 704.515625 68.691406 703.898438 70.851562 L 683.363281 130.464844 C 682.75 132.355469 683.804688 133.894531 685.675781 133.894531 L 693.304688 133.894531 C 695.363281 133.765625 697.144531 132.414062 697.824219 130.464844 L 706.339844 107.183594 C 707.210938 105.125 707.542969 104.625 710.136719 104.625 L 713.378906 104.921875 C 715.96875 104.921875 716.488281 105.386719 716.878906 107.277344 L 724.433594 130.449219 C 724.988281 132.339844 726.988281 133.878906 728.875 133.878906 L 736.503906 133.878906 C 738.394531 133.878906 739.449219 132.339844 738.894531 130.449219 L 731.875 108.371094 C 730.855469 105.441406 730.78125 104.867188 733.632812 104.457031 Z M 730.042969 86.71875 C 726.894531 94.152344 725.691406 94.984375 719.671875 94.335938 L 713.378906 93.816406 C 711.488281 93.816406 710.433594 92.277344 711.0625 90.386719 L 713.933594 82.046875 C 714.617188 80.078125 716.394531 78.695312 718.46875 78.523438 L 725.785156 79.136719 C 731.117188 79.839844 732.636719 80.527344 730.042969 86.71875 Z M 595.113281 91 L 602.925781 130.039062 C 603.203125 132.078125 604.167969 133.46875 606.035156 133.46875 L 613.648438 133.46875 C 615.710938 133.347656 617.5 131.992188 618.183594 130.039062 L 640.679688 65.269531 C 641.292969 63.378906 640.253906 61.859375 638.347656 61.859375 L 630.773438 61.46875 C 628.71875 61.601562 626.9375 62.949219 626.257812 64.898438 L 614.480469 99.046875 C 613.015625 102.769531 611.074219 103.050781 610.257812 98.804688 L 603.460938 63.675781 C 603.074219 61.433594 602.019531 60.191406 599.554688 60.078125 L 590.6875 59.632812 C 588.625 59.761719 586.84375 61.113281 586.167969 63.0625 L 563.097656 130.058594 C 562.484375 131.949219 563.523438 133.488281 565.410156 133.488281 L 573.039062 133.488281 C 575.097656 133.359375 576.878906 132.007812 577.558594 130.058594 L 591.054688 90.832031 C 592.703125 86.921875 594.539062 87.832031 595.113281 91 Z M 595.113281 91 "/>
</g>
</svg>
